<?xml version="1.0" encoding="iso-8859-1"?>
<!-- Generator: Adobe Illustrator 19.0.0, SVG Export Plug-In . SVG Version: 6.00 Build 0)  -->
<svg version="1.1" id="Layer_1" xmlns="http://www.w3.org/2000/svg" xmlns:xlink="http://www.w3.org/1999/xlink" x="0px" y="0px"
	 viewBox="0 0 512 512" style="enable-background:new 0 0 512 512;" xml:space="preserve">
<circle style="fill:#FF8C8A;" cx="256" cy="256" r="256"/>
<path style="fill:#FA7876;" d="M511.3,274.4c-9,125.8-108.8,226.5-234.3,236.7L137.7,373.3l236.1-235.1L511.3,274.4z"/>
<path style="fill:#FAD55C;" d="M256,122.1c74,0,133.9,59.9,133.9,133.9S330,389.9,256,389.9S122.1,330,122.1,256
	S182,122.1,256,122.1z"/>
<g>
	<path style="fill:#F8F8F8;" d="M256,89.4C164,89.4,89.4,164,89.4,256S164,422.6,256,422.6S422.6,348,422.6,256S348,89.4,256,89.4z
		 M256,388.5c-73.2,0-132.5-59.3-132.5-132.5S182.8,123.5,256,123.5S388.5,182.8,388.5,256S329.2,388.5,256,388.5z"/>
	<path style="fill:#F8F8F8;" d="M239.3,190.3L310,250c3.5,3,3.5,9.1,0,12l-70.8,59.7c-4.2,3.5-9.7,2-9.7-3.8c0-40.3,0-83.5,0-123.8
		C229.6,188.3,235,186.7,239.3,190.3z"/>
</g>
<g>
</g>
<g>
</g>
<g>
</g>
<g>
</g>
<g>
</g>
<g>
</g>
<g>
</g>
<g>
</g>
<g>
</g>
<g>
</g>
<g>
</g>
<g>
</g>
<g>
</g>
<g>
</g>
<g>
</g>
</svg>
